# xmcd
#
# Track frame offsets: 
#        150
#        11772
#        20835
#        31230
#        40572
#        53465
#        63962
#        79122
#        90307
#        100067
#        112747
#        124317
#        138102
#        150575
#        160750
#        171890
#        184790
#        196610
#        207615
#        216245
#
# Disc length: 3016 seconds
#
# Revision: 2
# Processed by: cddbd v1.5.2PL0 Copyright (c) Steve Scherf et al.
# Submitted via: ExactAudioCopyFreeDBPlugin 1.0
#
DISCID=f80bc614
DTITLE=Various Artist - Country Love
DYEAR=1900
DGENRE=Country
TTITLE0=Walking after midnight
TTITLE1=Jambalaya
TTITLE2=You're singing our love song
TTITLE3=Give me some love
TTITLE4=i can't get you of my mind
TTITLE5=Broken Promises
TTITLE6=Baby doll
TTITLE7=If I could write a song
TTITLE8=Sticks and Stones
TTITLE9=Fulsom Prison Blues
TTITLE10=I dont claim to be an angel
TTITLE11=There goes my everything
TTITLE12=The cheating kind
TTITLE13=Walk on by
TTITLE14=I can't forget
TTITLE15=You'll lose a good thing
TTITLE16=Cheatin Is
TTITLE17=I love you because
TTITLE18=Alilene
TTITLE19=I Miss You So Much
EXTD=
EXTT0=
EXTT1=
EXTT2=
EXTT3=
EXTT4=
EXTT5=
EXTT6=
EXTT7=
EXTT8=
EXTT9=
EXTT10=
EXTT11=
EXTT12=
EXTT13=
EXTT14=
EXTT15=
EXTT16=
EXTT17=
EXTT18=
EXTT19=
PLAYORDER=
